# xmcd
#
# Track frame offsets:
#	150
#	17860
#	33925
#	46900
#	61375
#	75340
#	91575
#	107217
#	119020
#	136715
#	152750
#	165737
#	180152
#	194122
#	210330
#	225932
#
# Disc length: 3170 seconds
#
# Revision: 0
# Processed by: cddbd v1.5.2PL0 Copyright (c) Steve Scherf et al.
# Submitted via: audiograbber 1.83.01
#
DISCID=bf0c6010
DTITLE=Various Artist - SC2025
DYEAR=1900
DGENRE=Country
TTITLE0=Garth Brooks - Friends In Low Places
TTITLE1=Jeannie C Riley - Harper Valley PTA
TTITLE2=Shelly West - Jose Cuervo
TTITLE3=Traditional - Rocky Top
TTITLE4=Headhunters Kentucky - Dumas Walker
TTITLE5=Billy Ray Cyrus - Achey Breaky Heart
TTITLE6=Brooks and Dunn - Boot Scootin Boogie
TTITLE7=Mel McDaniel - Louisiana Saturday Night
TTITLE8=Garth Brooks - Friends In Low Places (Vocal)
TTITLE9=Jeannie C Riley - Harper Valley PTA (Vocal)
TTITLE10=Shelly West - Jose Cuervo (Vocal)
TTITLE11=Traditional - Rocky Top (Vocal)
TTITLE12=Kentucky Headhunters - Dumas Walker (Vocal)
TTITLE13=Billy Ray Cyrus - Achey Breaky Heart (Vocal)
TTITLE14=Brooks and Dunn - Boot Scootin Boogie (Vocal)
TTITLE15=Mel McDaniel - Louisiana Saturday Night (Vocal)
EXTD=Tracks 9 - 16 Have Vocal Demonstration
EXTT0=
EXTT1=
EXTT2=
EXTT3=
EXTT4=
EXTT5=
EXTT6=
EXTT7=
EXTT8=Vocal Demonstration
EXTT9=Vocal Demonstration
EXTT10=Vocal Demonstration
EXTT11=Vocal Demonstration
EXTT12=Vocal Demonstration
EXTT13=Vocal Demonstration
EXTT14=Vocal Demonstration
EXTT15=Vocal Demonstration
PLAYORDER=
